<svg class="diagram-root" style="background: #f5f6f6" xmlns="http://www.w3.org/2000/svg" xmlns:xlink="http://www.w3.org/1999/xlink"><style>.diagram-root { font-family: "Helvetica Neue", sans-serif; font-size: 12px; } .t { overflow: visible; } .t-bg { y: 40; fill: #fff;   } .th { fill: #005aa0;   } .tht { fill: #fff; font-size: 14px;  } .tf { fill: #323c46; overflow: visible; } .tf.pk { fill: #005aa0; font-weight: bold; } .tf.fk { font-weight: bold; } .ty { fill: #adb1b5; font-weight: normal; text-anchor: end; } .r { fill: transparent; stroke: #c3c3c3; stroke-width: 1; } .l { stroke: 1; } .i { fill: #c2c7ce; stroke: #c2c7ce; } .i.ix { fill: #afb3b6; stroke: #000; } .fa { fill: transparent; overflow: visible; } .fa .bg.hover { fill: #f7f7f7; } .c { cy: 12; r: 4; stroke: #d2d2dc; fill: #d2d2dc; } .hr { fill: transparent; stroke: #323c46; stroke-opacity: 0.035; stroke-width: 13; } .dc { stroke: #fa5a3c; fill: #fa5a3c; } .x { stroke: white; stroke-width: 1; } .hl .th { fill: #1b9bff; } .hl .tht {  } .fhl .bg { fill: #e7f4ff; } .fhls .bg {  } .r.hl { stroke: #1b9bff; } .dim { opacity: 0.25; }</style><g class="drawing-wrapper" transform="translate(-72, -31) scale(1,1)"><g class="rs"><path d="M 310 246 m -1, 0 a 1,1 0 1,0 2,0 a 1,1 0 1,0 -2,0 M 310 246 m -0.5, 0 a 0.5,0.5 0 1,0 1,0 a 0.5,0.5 0 1,0 -1,0  M310 246 L310 246 322 246 M 310 252 m -1, 0 a 1,1 0 1,0 2,0 a 1,1 0 1,0 -2,0 M 310 252 m -0.5, 0 a 0.5,0.5 0 1,0 1,0 a 0.5,0.5 0 1,0 -1,0  M310 252 L310 252 317 246 310 240 M 310 240 m -1, 0 a 1,1 0 1,0 2,0 a 1,1 0 1,0 -2,0 M 310 240 m -0.5, 0 a 0.5,0.5 0 1,0 1,0 a 0.5,0.5 0 1,0 -1,0  M322 246 Q 402.25 246, 482.5 182 T 643 118 M 655 118 m -1, 0 a 1,1 0 1,0 2,0 a 1,1 0 1,0 -2,0 M 655 118 m -0.5, 0 a 0.5,0.5 0 1,0 1,0 a 0.5,0.5 0 1,0 -1,0  M655 118 L655 118 643 118 M649 124 L649 124 649 112" id="h3800864861" class="r"></path><path d="M 414 515 m -1, 0 a 1,1 0 1,0 2,0 a 1,1 0 1,0 -2,0 M 414 515 m -0.5, 0 a 0.5,0.5 0 1,0 1,0 a 0.5,0.5 0 1,0 -1,0  M414 515 L414 515 426 515 M 414 521 m -1, 0 a 1,1 0 1,0 2,0 a 1,1 0 1,0 -2,0 M 414 521 m -0.5, 0 a 0.5,0.5 0 1,0 1,0 a 0.5,0.5 0 1,0 -1,0  M414 521 L414 521 421 515 414 509 M 414 509 m -1, 0 a 1,1 0 1,0 2,0 a 1,1 0 1,0 -2,0 M 414 509 m -0.5, 0 a 0.5,0.5 0 1,0 1,0 a 0.5,0.5 0 1,0 -1,0  M426 515 C 476 515, 538.4 146, 322 146 M 310 146 m -1, 0 a 1,1 0 1,0 2,0 a 1,1 0 1,0 -2,0 M 310 146 m -0.5, 0 a 0.5,0.5 0 1,0 1,0 a 0.5,0.5 0 1,0 -1,0  M310 146 L310 146 322 146 M316 152 L316 152 316 140" id="h1880567866" class="r"></path><path d="M 414 540 m -1, 0 a 1,1 0 1,0 2,0 a 1,1 0 1,0 -2,0 M 414 540 m -0.5, 0 a 0.5,0.5 0 1,0 1,0 a 0.5,0.5 0 1,0 -1,0  M414 540 L414 540 426 540 M 414 546 m -1, 0 a 1,1 0 1,0 2,0 a 1,1 0 1,0 -2,0 M 414 546 m -0.5, 0 a 0.5,0.5 0 1,0 1,0 a 0.5,0.5 0 1,0 -1,0  M414 546 L414 546 421 540 414 534 M 414 534 m -1, 0 a 1,1 0 1,0 2,0 a 1,1 0 1,0 -2,0 M 414 534 m -0.5, 0 a 0.5,0.5 0 1,0 1,0 a 0.5,0.5 0 1,0 -1,0  M426 540 Q 480.25 540, 534.5 329 T 643 118 M 655 118 m -1, 0 a 1,1 0 1,0 2,0 a 1,1 0 1,0 -2,0 M 655 118 m -0.5, 0 a 0.5,0.5 0 1,0 1,0 a 0.5,0.5 0 1,0 -1,0  M655 118 L655 118 643 118 M649 124 L649 124 649 112" id="h3406716717" class="r dim"></path></g><g class="hrs"></g><g class="ts"><svg width="314" height="250" x="655" y="61" id="h132644801" class="t"><rect height="40" width="314" class="th"></rect><text x="13" y="25" class="tht">attributo</text><rect height="210" width="314" class="t-bg" y="40"></rect><text x="13" y="61" class="tf pk">id<tspan x="301" class="ty">INT</tspan></text><path d="M7,14A2,2 0 0,1 5,12A2,2 0 0,1 7,10A2,2 0 0,1 9,12A2,2 0 0,1 7,14M12.65,10C11.83,7.67 9.61,6 7, 6A6, 6 0 0, 0 1, 12A6, 6 0 0, 0 7, 18C9.61, 18 11.83, 16.33 12.65, 14H17V18H21V14H23V10H12.65Z" class="i pk" transform="translate(262, 48) scale(0.65)"></path><text x="13" y="86" class="tf">nome<tspan x="301" class="ty">VARCHAR(255)</tspan></text><text x="13" y="111" class="tf">descrizione<tspan x="301" class="ty">TEXT?</tspan></text><text x="13" y="136" class="tf">valore_stringa<tspan x="301" class="ty">VARCHAR(255)?</tspan></text><text x="13" y="161" class="tf">valore_numero<tspan x="301" class="ty">DECIMAL(10,2)?</tspan></text><text x="13" y="186" class="tf">valore_bool<tspan x="301" class="ty">TINYINT(1)?</tspan></text><text x="13" y="211" class="tf">valore_data<tspan x="301" class="ty">DATE?</tspan></text><text x="13" y="236" class="tf">tipo_attributo<tspan x="301" class="ty">ENUM('stringa','numero','bool','data')</tspan></text></svg><svg width="161" height="100" x="253" y="458" id="h2497605295" class="t"><rect height="40" width="161" class="th"></rect><text x="13" y="25" class="tht">prodotto_attributo</text><rect height="60" width="161" class="t-bg" y="40"></rect><text x="13" y="61" class="tf pk">prodotto_id<tspan x="148" class="ty">INT?</tspan></text><path d="M7,14A2,2 0 0,1 5,12A2,2 0 0,1 7,10A2,2 0 0,1 9,12A2,2 0 0,1 7,14M12.65,10C11.83,7.67 9.61,6 7, 6A6, 6 0 0, 0 1, 12A6, 6 0 0, 0 7, 18C9.61, 18 11.83, 16.33 12.65, 14H17V18H21V14H23V10H12.65Z" class="i pk" transform="translate(102, 48) scale(0.65)"></path><text x="13" y="86" class="tf pk">attributo_id<tspan x="148" class="ty">INT?</tspan></text><path d="M7,14A2,2 0 0,1 5,12A2,2 0 0,1 7,10A2,2 0 0,1 9,12A2,2 0 0,1 7,14M12.65,10C11.83,7.67 9.61,6 7, 6A6, 6 0 0, 0 1, 12A6, 6 0 0, 0 7, 18C9.61, 18 11.83, 16.33 12.65, 14H17V18H21V14H23V10H12.65Z" class="i pk" transform="translate(102, 73) scale(0.65)"></path></svg><svg width="216" height="175" x="94" y="89" id="h4231204755" class="t hl"><rect height="40" width="216" class="th"></rect><text x="13" y="25" class="tht">prodotto</text><rect height="135" width="216" class="t-bg" y="40"></rect><svg width="216" height="25" y="70" class="fhl"><rect width="216" height="25" class="bg"></rect></svg><text x="13" y="61" class="tf pk">id<tspan x="203" class="ty">INT</tspan></text><path d="M7,14A2,2 0 0,1 5,12A2,2 0 0,1 7,10A2,2 0 0,1 9,12A2,2 0 0,1 7,14M12.65,10C11.83,7.67 9.61,6 7, 6A6, 6 0 0, 0 1, 12A6, 6 0 0, 0 7, 18C9.61, 18 11.83, 16.33 12.65, 14H17V18H21V14H23V10H12.65Z" class="i pk" transform="translate(164, 48) scale(0.65)"></path><text x="13" y="86" class="tf">nome<tspan x="203" class="ty">VARCHAR(255)</tspan></text><text x="13" y="111" class="tf">descrizione<tspan x="203" class="ty">TEXT?</tspan></text><text x="13" y="136" class="tf">prezzo_finale<tspan x="203" class="ty">DECIMAL(10,2)?</tspan></text><text x="13" y="161" class="tf fk">attributo_id<tspan x="203" class="ty">INT?</tspan></text></svg></g></g><text class="qdbd-link" x="10" y="20">www.quickdatabasediagrams.com</text></svg>